<?xml version="1.0" encoding="UTF-8"?>
<svg width="700px" height="500px" viewBox="0 0 700 500" version="1.1" xmlns="http://www.w3.org/2000/svg" xmlns:xlink="http://www.w3.org/1999/xlink">
    <defs>
        <linearGradient x1="0%" y1="50%" x2="100%" y2="50%" id="linearGradient-1">
            <stop stop-color="#000000" stop-opacity="0.4" offset="0%"></stop>
            <stop stop-color="#000000" stop-opacity="0" offset="100%"></stop>
        </linearGradient>
        <linearGradient x1="0%" y1="50%" x2="100%" y2="50%" id="linearGradient-2">
            <stop stop-color="#000000" stop-opacity="0.4" offset="0%"></stop>
            <stop stop-color="#000000" stop-opacity="0" offset="100%"></stop>
        </linearGradient>
        <linearGradient x1="50%" y1="0%" x2="50%" y2="100%" id="linearGradient-3">
            <stop stop-color="#FFEE74" offset="0%"></stop>
            <stop stop-color="#EFC723" offset="100%"></stop>
        </linearGradient>
    </defs>
    <g id="logo" stroke="none" stroke-width="1" fill="none" fill-rule="evenodd">
        <path d="M302.85,459 L302.85,447.45 C299.649984,451.250019 295.875022,454.249989 291.525,456.45 C287.174978,458.650011 282.650024,459.75 277.95,459.75 C272.649973,459.75 267.700023,458.77501 263.1,456.825 C258.499977,454.87499 254.500017,452.100018 251.1,448.5 C247.599982,444.899982 244.87501,440.775023 242.925,436.125 C240.97499,431.474977 240,426.550026 240,421.35 C240,416.149974 240.97499,411.225023 242.925,406.575 C244.87501,401.924977 247.599982,397.800018 251.1,394.2 C254.500017,390.599982 258.499977,387.82501 263.1,385.875 C267.700023,383.92499 272.649973,382.95 277.95,382.95 C283.150026,382.95 287.874979,383.99999 292.125,386.1 C296.375021,388.20001 299.949985,391.099982 302.85,394.8 L302.85,359.4 L316.05,359.4 L316.05,459 L302.85,459 Z M277.95,396.6 C274.649983,396.6 271.500015,397.224994 268.5,398.475 C265.499985,399.725006 262.900011,401.499988 260.7,403.8 C258.499989,406.100011 256.750006,408.774985 255.45,411.825 C254.149993,414.875015 253.5,418.049984 253.5,421.35 C253.5,428.050033 255.899976,433.899975 260.7,438.9 C262.900011,441.200012 265.499985,442.999994 268.5,444.3 C271.500015,445.600007 274.649983,446.25 277.95,446.25 C281.250016,446.25 284.424985,445.600007 287.475,444.3 C290.525015,442.999994 293.149989,441.200012 295.35,438.9 C300.150024,433.899975 302.55,428.050033 302.55,421.35 C302.55,418.049984 301.900007,414.875015 300.6,411.825 C299.299994,408.774985 297.550011,406.100011 295.35,403.8 C293.149989,401.499988 290.525015,399.725006 287.475,398.475 C284.424985,397.224994 281.250016,396.6 277.95,396.6 Z M391.8,459 L391.8,447.6 C388.599984,451.300019 384.900021,454.249989 380.7,456.45 C376.499979,458.650011 372.050023,459.75 367.35,459.75 C362.149974,459.75 357.275023,458.800009 352.725,456.9 C348.174977,454.99999 344.150018,452.300017 340.65,448.8 C337.149983,445.399983 334.42501,441.375023 332.475,436.725 C330.52499,432.074977 329.55,427.200026 329.55,422.1 C329.55,416.999975 330.52499,412.125023 332.475,407.475 C334.42501,402.824977 337.149983,398.750018 340.65,395.25 C344.150018,391.749982 348.174977,389.050009 352.725,387.15 C357.275023,385.24999 362.149974,384.3 367.35,384.3 C372.150024,384.3 376.674979,385.29999 380.925,387.3 C385.175021,389.30001 388.799985,392.099982 391.8,395.7 L391.8,385.8 L405.3,385.8 L405.3,459 L391.8,459 Z M367.35,397.65 C364.049984,397.65 360.875015,398.274994 357.825,399.525 C354.774985,400.775006 352.150011,402.499989 349.95,404.7 C347.749989,406.900011 346.025006,409.524985 344.775,412.575 C343.524994,415.625015 342.9,418.799984 342.9,422.1 C342.9,425.400016 343.524994,428.549985 344.775,431.55 C346.025006,434.550015 347.749989,437.149989 349.95,439.35 C352.150011,441.550011 354.774985,443.274994 357.825,444.525 C360.875015,445.775006 364.049984,446.4 367.35,446.4 C370.650016,446.4 373.799985,445.775006 376.8,444.525 C379.800015,443.274994 382.399989,441.550011 384.6,439.35 C386.800011,437.149989 388.524994,434.550015 389.775,431.55 C391.025006,428.549985 391.65,425.400016 391.65,422.1 C391.65,418.799984 391.025006,415.625015 389.775,412.575 C388.524994,409.524985 386.800011,406.900011 384.6,404.7 C382.399989,402.499989 379.800015,400.775006 376.8,399.525 C373.799985,398.274994 370.650016,397.65 367.35,397.65 Z M420.3,459 L420.3,359.25 L432.3,359.25 L432.3,459 L420.3,459 Z M447.3,459 L447.3,359.25 L459.3,359.25 L459.3,459 L447.3,459 Z" id="dall" fill="#000000"></path>
        <polygon id="floor" fill="#F6C016" points="555 178 555 328 155 328 153.999992 328 154 327 154 177 204 177 204 278 505 278 505 178"></polygon>
        <rect id="left-shadow" fill="url(#linearGradient-1)" transform="translate(529.999996, 203.250002) rotate(90.000000) translate(-529.999996, -203.250002) " x="504.749994" y="178.249998" width="50.500004" height="50.000008"></rect>
        <rect id="right-shadow" fill="url(#linearGradient-2)" transform="translate(178.999996, 202.250002) rotate(90.000000) translate(-178.999996, -202.250002) " x="153.749994" y="177.249998" width="50.500004" height="50.000008"></rect>
        <polygon id="roof" fill="url(#linearGradient-3)" points="349.604772 37.7689614 350 38 607.209545 186.5 582.209545 229.80127 349.604772 95.5068422 117 229.80127 92 186.5 349.209545 38"></polygon>
        <g id="dall"></g>
    </g>
</svg>