<?xml version="1.0" encoding="UTF-8"?>
<svg width="700px" height="500px" viewBox="0 0 700 500" version="1.1" xmlns="http://www.w3.org/2000/svg" xmlns:xlink="http://www.w3.org/1999/xlink">
    <!-- Generator: Sketch 52.5 (67469) - http://www.bohemiancoding.com/sketch -->
    <title>dall-export</title>
    <desc>Created with Sketch.</desc>
    <defs>
        <linearGradient x1="-1.65717563e-05%" y1="49.99998%" x2="99.9999807%" y2="49.99998%" id="linearGradient-1">
            <stop stop-color="#000000" stop-opacity="0.3764706" offset="0%"></stop>
            <stop stop-color="#000000" stop-opacity="0" offset="100%"></stop>
        </linearGradient>
        <linearGradient x1="-5.61757136e-05%" y1="49.9999619%" x2="99.9999411%" y2="49.9999619%" id="linearGradient-2">
            <stop stop-color="#000000" stop-opacity="0.3764706" offset="0%"></stop>
            <stop stop-color="#000000" stop-opacity="0" offset="100%"></stop>
        </linearGradient>
        <linearGradient x1="49.9999984%" y1="-1.01230676e-07%" x2="49.9999984%" y2="99.9999988%" id="linearGradient-3">
            <stop stop-color="#FFEE74" offset="0%"></stop>
            <stop stop-color="#EFC723" offset="100%"></stop>
        </linearGradient>
    </defs>
    <g id="logo" stroke="none" stroke-width="1" fill="none" fill-rule="evenodd">
        <text id="dall" font-family="SulphurPoint-Bold, Sulphur Point" font-size="150" font-weight="bold" fill="#000000">
            <tspan x="234" y="459">dall</tspan>
        </text>
        <polygon id="floor" fill="#F6C016" points="555 178 555 328 155 328 153.999992 328 154 327 154 177 204 177 204 278 505 278 505 178"></polygon>
        <rect id="left-shadow" fill="url(#linearGradient-1)" transform="translate(529.999996, 203.250002) rotate(90.000000) translate(-529.999996, -203.250002) " x="504.749994" y="178.249998" width="50.500004" height="50.000008"></rect>
        <rect id="right-shadow" fill="url(#linearGradient-2)" transform="translate(178.999996, 202.250002) rotate(90.000000) translate(-178.999996, -202.250002) " x="153.749994" y="177.249998" width="50.500004" height="50.000008"></rect>
        <polygon id="roof" fill="url(#linearGradient-3)" points="349.604772 37.7689614 350 38 607.209545 186.5 582.209545 229.80127 349.604772 95.5068422 117 229.80127 92 186.5 349.209545 38"></polygon>
        <g id="dall"></g>
    </g>
</svg>